<?xml version="1.0" encoding="UTF-8" standalone="no"?>
<!-- Created with Inkscape (http://www.inkscape.org/) -->
<svg
   xmlns:dc="http://purl.org/dc/elements/1.1/"
   xmlns:cc="http://web.resource.org/cc/"
   xmlns:rdf="http://www.w3.org/1999/02/22-rdf-syntax-ns#"
   xmlns:svg="http://www.w3.org/2000/svg"
   xmlns="http://www.w3.org/2000/svg"
   xmlns:sodipodi="http://sodipodi.sourceforge.net/DTD/sodipodi-0.dtd"
   xmlns:inkscape="http://www.inkscape.org/namespaces/inkscape"
   width="695.64868"
   height="666.87604"
   id="svg2"
   sodipodi:version="0.32"
   inkscape:version="0.45.1"
   sodipodi:docbase="C:\Users\user"
   sodipodi:docname="phi is not empty set.svg"
   inkscape:output_extension="org.inkscape.output.svg.inkscape"
   version="1.0">
  <defs
     id="defs4" />
  <sodipodi:namedview
     id="base"
     pagecolor="#ffffff"
     bordercolor="#666666"
     borderopacity="1.0"
     gridtolerance="10000"
     guidetolerance="10"
     objecttolerance="10"
     inkscape:pageopacity="0.0"
     inkscape:pageshadow="2"
     inkscape:zoom="0.76686859"
     inkscape:cx="333.26203"
     inkscape:cy="327.48292"
     inkscape:document-units="px"
     inkscape:current-layer="layer1"
     inkscape:window-width="1008"
     inkscape:window-height="718"
     inkscape:window-x="0"
     inkscape:window-y="14"
     showguides="true"
     inkscape:guide-bbox="true"
     width="20cm"
     height="29.7cm"
     units="cm" />
  <metadata
     id="metadata7">
    <rdf:RDF>
      <cc:Work
         rdf:about="">
        <dc:format>image/svg+xml</dc:format>
        <dc:type
           rdf:resource="http://purl.org/dc/dcmitype/StillImage" />
      </cc:Work>
    </rdf:RDF>
  </metadata>
  <g
     inkscape:label="Layer 1"
     inkscape:groupmode="layer"
     id="layer1"
     transform="translate(-24.896624,-171.61984)">
    <path
       transform="scale(1.1398918,0.8772762)"
       style="font-size:541.69140625px;font-style:normal;font-weight:normal;fill:#000000;fill-opacity:1;stroke:none;stroke-width:1px;stroke-linecap:butt;stroke-linejoin:miter;stroke-opacity:1;font-family:Vivaldi"
       d="M 459.10649,578.66849 C 459.10621,628.21784 447.11566,666.56997 423.13479,693.72502 C 404.09073,715.23751 380.19779,728.19789 351.4559,732.60619 L 351.4559,835.23132 L 301.73032,835.23132 L 301.73032,732.34169 C 272.63548,727.58073 248.91887,714.26769 230.58043,692.40253 C 206.95193,664.36583 195.13771,626.45452 195.13773,578.66849 C 195.13771,539.52301 203.33713,506.54899 219.73602,479.74633 C 238.42714,449.2412 265.75854,430.90271 301.73032,424.7308 L 301.73032,314.69973 L 351.4559,314.69973 L 351.4559,424.4663 C 380.37412,429.05122 404.26706,442.0116 423.13479,463.34747 C 447.11566,490.50281 459.10621,528.94311 459.10649,578.66849 L 459.10649,578.66849 z M 407.79392,578.66849 C 407.7937,516.24723 389.01437,479.57025 351.4559,468.63742 L 351.4559,688.43506 C 365.7386,684.20314 377.55282,675.82738 386.8986,663.30777 C 400.8286,644.61668 407.7937,616.40361 407.79392,578.66849 L 407.79392,578.66849 z M 301.73032,687.90606 L 301.73032,469.16642 C 264.87688,480.62824 246.45023,517.12889 246.45029,578.66849 C 246.45023,639.85573 264.87688,676.26821 301.73032,687.90606 L 301.73032,687.90606 z "
       id="text2196" />
    <path
       style="font-size:871.22381592px;font-style:normal;font-weight:normal;fill:#ff0000;fill-opacity:1;stroke:none;stroke-width:1px;stroke-linecap:butt;stroke-linejoin:miter;stroke-opacity:1;font-family:Gill Sans MT"
       d="M 618.91285,171.61984 L 662.53592,209.674 L 618.91285,262.57857 C 651.08806,291.97054 676.07075,327.85899 693.86099,370.24402 C 711.64981,412.62997 720.54458,457.33583 720.54532,504.36174 C 720.54458,599.96146 687.51793,679.24089 621.46527,742.20027 C 555.41132,805.15983 472.2646,836.63956 372.02486,836.63957 C 290.6567,836.63956 223.82994,819.00472 171.54438,783.735 L 124.67279,838.49587 L 80.121571,802.76208 L 124.67279,747.53714 C 93.115564,718.76459 68.59695,683.41756 51.116872,641.49596 C 33.636655,599.57473 24.896581,555.41029 24.896624,509.00249 C 24.896581,411.85651 57.76854,331.64893 123.5126,268.37951 C 189.25638,205.11122 272.40309,173.4768 372.95301,173.47614 C 443.49197,173.4768 510.31873,191.57571 573.43348,227.77294 L 618.91285,171.61984 z M 556.2627,333.118 L 231.41008,713.19557 C 275.961,738.56511 322.83255,751.24982 372.02486,751.24974 C 445.03889,751.24982 505.3686,727.81404 553.01418,680.94235 C 600.65861,634.07095 624.48111,574.74673 624.48175,502.96952 C 624.48111,471.10338 618.44814,440.16507 606.38282,410.15448 C 594.31625,380.14474 577.60956,354.46594 556.2627,333.118 L 556.2627,333.118 z M 186.39479,677.92586 L 512.63964,296.92014 C 469.01608,271.55125 422.7633,258.86654 373.88116,258.86597 C 301.17573,258.86654 240.84601,282.22497 192.89184,328.94132 C 144.93724,375.65868 120.96005,434.44148 120.96019,505.28989 C 120.96005,570.57006 142.77156,628.11533 186.39479,677.92586 L 186.39479,677.92586 z "
       id="text2200" />
  </g>
</svg>
